<svg version="1.0" xmlns="http://www.w3.org/2000/svg"
 width="2111.000000pt" height="601.000000pt" viewBox="0 0 2111.000000 601.000000"
 preserveAspectRatio="xMidYMid meet">

<g transform="translate(0.000000,601.000000) scale(0.100000,-0.100000)"
fill="#000000" stroke="none">
<path d="M7540 3750 l0 -2260 230 0 230 0 0 2260 0 2260 -230 0 -230 0 0
-2260z"/>
<path d="M20423 5172 c-62 -218 -151 -536 -199 -705 -48 -169 -90 -304 -94
-300 -5 4 -27 71 -50 148 -65 218 -270 888 -277 905 -5 12 -7 12 -10 -3 -3 -9
-8 -15 -13 -12 -5 3 -11 1 -14 -4 -4 -5 -1 -13 5 -17 8 -5 9 -3 4 6 -5 9 -4
11 4 6 6 -4 9 -12 5 -17 -3 -6 -9 -8 -12 -5 -6 7 -38 -36 -35 -46 2 -4 -6 -12
-17 -18 -11 -6 -20 -16 -20 -22 0 -6 -20 -36 -45 -66 -25 -30 -45 -59 -45 -64
0 -5 -4 -7 -9 -4 -4 3 -6 -5 -4 -18 3 -13 0 -27 -6 -30 -7 -5 -9 -1 -5 8 8 22
-3 20 -15 -2 -20 -37 39 -247 267 -952 l98 -305 191 -3 191 -2 26 77 c197 603
309 977 354 1183 7 31 10 -152 11 -607 l1 -653 195 0 195 0 0 960 0 960 -282
0 -283 0 -112 -398z"/>
<path d="M8880 5382 c0 -93 -3 -311 -7 -485 l-6 -317 -199 0 -198 0 0 -210 0
-210 205 0 205 0 0 -1017 c0 -578 5 -1061 10 -1117 19 -198 72 -328 175 -432
112 -113 254 -160 450 -151 127 7 223 31 343 87 l82 39 0 211 0 211 -52 -40
c-93 -69 -205 -111 -296 -111 -105 0 -190 65 -222 168 -19 62 -20 98 -20 1108
l0 1044 330 0 330 0 0 210 0 210 -330 0 -330 0 0 485 0 485 -235 0 -235 0 0
-168z"/>
<path d="M12190 5285 l0 -265 235 0 235 0 0 265 0 265 -235 0 -235 0 0 -265z"/>
<path d="M19522 4841 c-7 -4 -14 -15 -16 -24 -1 -10 -12 -26 -24 -37 -12 -11
-25 -32 -28 -45 -3 -14 -10 -22 -16 -19 -5 3 -12 -3 -15 -15 -3 -11 -16 -27
-29 -36 -13 -8 -24 -24 -24 -34 0 -10 -7 -21 -15 -25 -8 -3 -15 -12 -15 -20 0
-7 -7 -17 -16 -20 -9 -4 -14 -9 -11 -13 4 -3 -5 -14 -18 -25 -14 -11 -25 -27
-25 -37 0 -10 -13 -28 -30 -41 -19 -14 -30 -32 -30 -47 0 -13 -4 -22 -9 -19
-11 7 -41 -37 -41 -61 0 -15 -2 -16 -10 -3 -6 10 -10 -67 -12 -223 l-3 -239
-69 111 c-63 102 -99 149 -83 109 4 -11 1 -14 -12 -11 -16 4 -40 -29 -37 -49
0 -4 -9 -15 -21 -23 -13 -9 -23 -22 -23 -29 0 -8 -7 -16 -15 -20 -8 -3 -15
-12 -15 -19 0 -8 -10 -22 -21 -33 -12 -10 -25 -29 -30 -42 -5 -13 -13 -20 -19
-17 -5 3 -10 1 -10 -5 0 -6 -5 -8 -12 -4 -10 6 -10 4 -2 -7 12 -15 11 -46 -2
-57 -4 -4 -4 2 0 13 6 16 5 17 -5 8 -9 -9 -4 -25 23 -70 l34 -58 362 -3 362
-2 0 600 c0 330 -2 600 -3 600 -1 0 -8 -4 -15 -9z"/>
<path d="M5895 4634 c-206 -20 -389 -96 -520 -216 -174 -159 -286 -405 -302
-665 l-6 -103 211 0 212 0 0 58 c0 130 62 288 148 383 205 223 550 189 668
-66 44 -95 57 -170 58 -323 l1 -144 -330 -157 c-531 -253 -618 -300 -771 -419
-182 -141 -284 -294 -330 -497 -27 -118 -25 -340 5 -459 71 -293 261 -494 537
-567 110 -29 307 -30 415 -1 161 43 303 126 432 254 44 44 80 78 81 76 2 -2
19 -38 38 -80 60 -126 152 -209 281 -250 108 -36 285 -27 410 21 l27 11 0 200
c0 110 -1 200 -2 200 -2 0 -30 -11 -63 -25 -120 -49 -208 -23 -246 75 -11 28
-15 221 -19 1025 -6 977 -6 991 -27 1067 -63 223 -163 370 -319 471 -82 53
-177 92 -271 111 -72 15 -251 26 -318 20z m475 -1968 l0 -474 -43 -58 c-158
-214 -404 -338 -605 -305 -215 35 -342 195 -342 431 0 161 57 295 180 423 100
105 226 188 456 297 104 50 221 106 259 124 39 19 76 35 83 35 9 1 12 -100 12
-473z"/>
<path d="M11474 4625 c-96 -17 -136 -31 -218 -73 -79 -41 -201 -151 -277 -252
-29 -38 -56 -67 -60 -65 -3 3 -10 73 -13 157 -4 84 -10 161 -12 171 -5 15 -24
17 -225 17 l-219 0 0 -1545 0 -1545 230 0 230 0 0 1107 0 1106 38 36 c206 196
426 356 574 419 51 21 78 26 146 25 l82 0 0 228 0 229 -102 -1 c-57 0 -135 -7
-174 -14z"/>
<path d="M825 4613 c-150 -31 -340 -148 -446 -274 -188 -223 -301 -519 -351
-919 -17 -138 -17 -638 0 -785 68 -582 270 -962 600 -1129 126 -64 316 -84
480 -50 121 24 263 98 355 184 l77 72 0 -851 0 -851 230 0 230 0 0 2285 0
2285 -200 0 -200 0 0 -97 c0 -54 -3 -115 -6 -136 l-7 -38 -32 48 c-82 122
-239 226 -390 258 -88 19 -249 18 -340 -2z m350 -398 c92 -24 142 -52 217
-123 51 -48 78 -84 108 -144 l40 -80 0 -842 0 -841 -39 -60 c-83 -131 -182
-215 -302 -255 -53 -18 -81 -21 -164 -18 -87 3 -109 8 -166 35 -196 92 -309
315 -365 718 -26 184 -26 659 0 830 32 221 72 357 143 496 118 232 317 338
528 284z"/>
<path d="M16145 4620 c-396 -62 -660 -349 -682 -740 -14 -253 60 -445 241
-626 103 -103 220 -183 441 -304 315 -172 422 -248 506 -359 63 -84 90 -155
96 -256 10 -143 -29 -256 -119 -351 -92 -98 -201 -144 -337 -144 -275 0 -472
202 -513 526 l-12 94 -213 0 -213 0 0 -25 c0 -13 5 -71 11 -127 48 -450 289
-752 676 -850 75 -19 114 -23 268 -22 207 1 278 15 425 85 216 103 365 279
436 514 22 76 27 115 31 245 6 176 -7 273 -53 386 -101 254 -275 411 -704 639
-306 163 -416 246 -477 362 -97 181 -47 398 114 501 75 48 151 65 259 60 113
-6 199 -42 269 -113 85 -84 140 -246 133 -393 l-3 -72 214 0 214 0 -6 138 c-6
164 -29 259 -91 387 -107 222 -278 364 -511 426 -92 24 -302 34 -400 19z"/>
<path d="M14011 4605 c-454 -82 -730 -466 -816 -1135 -36 -285 -30 -714 16
-995 92 -562 336 -909 708 -1006 110 -29 283 -35 400 -15 404 71 648 399 705
949 l6 57 -212 -2 -213 -3 -8 -80 c-9 -95 -47 -235 -83 -307 -131 -258 -457
-303 -645 -90 -122 139 -200 389 -230 740 -15 182 -7 616 15 762 59 392 177
622 363 707 144 66 323 26 421 -93 68 -83 126 -238 138 -375 l7 -69 216 0 217
0 -3 68 c-25 495 -265 818 -659 887 -104 18 -242 18 -343 0z"/>
<path d="M2602 3323 l3 -1258 26 -95 c78 -281 218 -436 449 -497 87 -23 288
-23 384 0 163 40 303 123 434 255 l82 83 0 -150 0 -151 225 0 225 0 0 1535 0
1535 -230 0 -230 0 0 -1174 0 -1174 -47 -63 c-61 -84 -175 -195 -248 -244
-184 -121 -387 -121 -494 2 -44 49 -73 106 -99 191 -15 52 -17 157 -20 1260
l-2 1202 -231 0 -230 0 3 -1257z"/>
<path d="M12190 3045 l0 -1535 235 0 235 0 0 1535 0 1535 -235 0 -235 0 0
-1535z"/>
<path d="M17570 1998 c-100 -52 -150 -137 -150 -258 0 -120 50 -206 148 -257
55 -28 74 -33 136 -33 130 0 220 51 270 152 22 44 26 65 26 137 0 96 -16 143
-68 202 -50 57 -114 83 -212 87 -80 4 -89 2 -150 -30z m211 -34 c157 -46 213
-254 103 -383 -83 -97 -248 -99 -335 -4 -46 49 -63 93 -63 163 0 130 94 230
225 239 8 1 40 -6 70 -15z"/>
<path d="M17580 1746 l0 -166 39 0 40 0 3 53 c3 51 4 52 35 55 31 3 34 0 60
-52 26 -53 29 -56 65 -56 21 0 38 3 38 7 0 3 -14 31 -31 61 -30 53 -30 54 -10
68 28 20 44 75 34 115 -15 58 -50 74 -169 77 l-104 4 0 -166z m188 78 c12 -8
22 -22 22 -29 0 -24 -45 -47 -87 -43 -33 3 -38 6 -41 31 -2 16 -1 35 2 43 7
19 76 18 104 -2z"/>
</g>
</svg>
